<?xml version="1.0" standalone="no"?>
<!DOCTYPE svg PUBLIC "-//W3C//DTD SVG 20010904//EN"
 "http://www.w3.org/TR/2001/REC-SVG-20010904/DTD/svg10.dtd">
<svg version="1.0" xmlns="http://www.w3.org/2000/svg"
 width="260.000000pt" height="260.000000pt" viewBox="0 0 260.000000 260.000000"
 preserveAspectRatio="xMidYMid meet">
<metadata>
Created by potrace 1.11, written by Peter Selinger 2001-2013
</metadata>
<g transform="translate(0.000000,260.000000) scale(0.100000,-0.100000)"
fill="#000000" stroke="none">
<path d="M709 2323 c-9 -10 -29 -28 -45 -41 -21 -17 -23 -21 -9 -17 32 10 85
49 85 63 0 17 -13 15 -31 -5z"/>
<path d="M731 2288 c-52 -63 -59 -75 -51 -88 6 -10 18 -3 49 29 42 43 51 58
29 45 -9 -5 -9 -2 1 9 12 15 11 17 -2 17 -9 0 -21 -6 -26 -12z"/>
<path d="M776 2192 c-5 -18 -5 -36 -2 -39 7 -7 19 43 13 59 -2 7 -7 -2 -11
-20z"/>
<path d="M467 2160 c-37 -28 -67 -53 -67 -55 0 -14 78 30 109 60 53 54 32 51
-42 -5z"/>
<path d="M726 2175 c-2 -7 -1 -17 3 -24 5 -8 11 -4 18 12 9 19 8 24 -3 24 -7
0 -15 -6 -18 -12z"/>
<path d="M746 2132 c-3 -6 -2 -13 4 -17 5 -3 10 -11 10 -16 0 -6 -4 -7 -10 -4
-12 7 -12 3 -4 -19 10 -25 24 -18 24 12 0 32 -15 59 -24 44z"/>
<path d="M757 1993 c-5 -26 -2 -42 8 -53 8 -9 15 -28 15 -41 0 -14 5 -30 12
-37 9 -9 9 -12 -1 -12 -8 0 -11 -6 -7 -16 4 -12 2 -15 -9 -10 -8 3 -15 1 -15
-5 0 -6 -4 -8 -9 -5 -19 12 -19 -50 1 -81 16 -27 17 -32 4 -27 -12 4 -16 0
-16 -15 0 -12 5 -21 11 -21 5 0 7 -4 4 -10 -3 -5 -3 -10 2 -10 4 0 26 -16 47
-36 27 -25 46 -34 62 -31 16 3 21 0 17 -11 -8 -19 12 -30 43 -24 l26 5 -38 38
c-30 30 -35 42 -30 63 3 14 12 26 19 26 8 0 7 4 -3 10 -9 6 -10 10 -3 10 7 0
17 -9 23 -20 6 -11 16 -18 22 -14 5 4 21 -6 34 -22 13 -16 21 -21 18 -12 -4
13 -1 15 17 11 l23 -6 -19 30 c-98 152 -202 303 -209 303 -5 0 -3 -7 4 -15 7
-9 10 -18 7 -21 -8 -8 -29 35 -22 46 6 10 -15 50 -26 50 -4 0 -9 -17 -12 -37z
m108 -323 c12 -19 -12 -10 -31 11 -19 22 -19 22 3 10 12 -6 25 -16 28 -21z
m-60 -10 c10 -11 14 -20 8 -20 -5 0 -18 9 -28 20 -10 11 -14 20 -8 20 5 0 18
-9 28 -20z"/>
<path d="M427 1989 c-16 -4 -36 -5 -45 -2 -15 6 -15 4 1 -14 23 -26 22 -33 -7
-33 -29 0 -48 -39 -43 -90 2 -21 -3 -39 -11 -45 -10 -9 -8 -19 16 -53 19 -30
29 -57 31 -90 1 -34 8 -51 23 -63 14 -11 17 -18 8 -21 -15 -5 33 -94 49 -91
13 3 34 -34 36 -62 4 -56 6 -65 15 -65 6 0 10 14 10 30 0 17 4 30 10 30 11 0
50 -40 50 -53 0 -4 7 -15 15 -23 12 -12 15 -12 15 -2 1 7 11 1 23 -14 17 -21
22 -37 19 -68 -2 -22 -9 -40 -14 -40 -7 0 -6 -5 1 -13 6 -8 8 -17 4 -21 -4 -3
2 -13 13 -20 11 -8 15 -18 10 -23 -5 -4 -11 -2 -13 5 -11 29 -22 8 -22 -40 0
-65 -10 -209 -21 -303 -5 -38 -12 -127 -16 -198 -6 -116 -6 -127 9 -121 12 4
17 1 17 -10 0 -9 -6 -13 -14 -10 -9 3 -15 -4 -18 -20 -3 -14 -2 -26 2 -26 4 0
10 -9 13 -20 3 -13 10 -18 21 -14 12 5 16 0 16 -20 0 -22 -4 -26 -31 -26 -16
0 -28 -4 -25 -9 8 -12 116 -13 116 0 0 5 10 9 23 7 20 -3 22 1 24 47 1 30 -1
41 -5 28 -13 -41 -29 -9 -36 71 -6 69 -5 78 8 73 13 -5 16 1 15 31 0 32 -1 34
-9 15 -13 -31 -28 -29 -22 3 5 26 4 26 -16 8 -16 -13 -18 -20 -9 -27 8 -5 5
-7 -8 -5 -21 4 -23 16 -12 73 3 17 6 37 7 45 0 9 7 4 16 -13 8 -15 12 -32 9
-37 -3 -6 -1 -10 4 -10 6 0 11 3 11 8 17 281 22 308 79 371 17 18 31 37 31 42
0 17 -19 18 -29 2 -8 -14 -12 -16 -22 -6 -7 7 -9 13 -5 13 5 0 3 7 -4 15 -15
18 -5 35 20 35 13 0 18 6 15 18 -1 10 4 26 12 37 13 16 15 17 10 3 -5 -13 -1
-18 11 -18 20 0 75 -52 67 -63 -3 -4 -2 -5 2 -2 8 6 119 -97 115 -107 -1 -4 9
-14 21 -23 14 -9 41 -55 67 -115 32 -71 49 -100 62 -100 12 0 21 -13 28 -40 6
-22 22 -51 35 -64 14 -14 25 -30 25 -36 0 -22 -16 -7 -45 41 -31 53 -55 82
-61 76 -7 -7 35 -102 44 -100 6 1 15 -11 22 -27 8 -18 17 -27 26 -23 19 7 59
-28 43 -38 -20 -12 -2 -41 21 -34 24 8 60 -2 60 -16 0 -6 -5 -7 -11 -3 -7 4
-10 -1 -7 -12 2 -12 19 -24 46 -32 23 -8 42 -18 42 -23 0 -5 9 -9 19 -9 11 0
23 -5 26 -11 4 -6 13 -8 20 -5 7 2 18 -1 25 -7 9 -9 14 -9 17 -1 2 8 17 9 46
3 23 -4 69 -5 102 -1 l60 7 -45 6 -45 6 47 1 c25 1 55 5 65 9 15 6 13 8 -11
13 -38 7 -47 29 -9 23 37 -5 116 -3 123 3 11 12 -55 52 -84 51 -17 0 -51 2
-76 6 -25 3 -39 3 -32 0 14 -5 17 -33 3 -33 -5 0 -12 7 -15 16 -3 9 -13 14
-21 11 -10 -4 -12 -1 -8 10 4 10 2 14 -5 10 -6 -4 -30 3 -54 16 -34 18 -50 21
-71 14 -15 -5 -27 -15 -27 -24 0 -8 -6 -13 -12 -10 -7 2 -13 11 -13 20 0 8 -4
19 -9 24 -5 4 -6 3 -2 -4 13 -22 -9 -14 -23 8 -11 19 -11 21 1 16 20 -7 12 35
-12 60 -9 11 -23 29 -29 41 -10 18 -9 23 3 28 13 5 13 9 -1 32 l-17 27 30 -27
c17 -16 35 -28 41 -28 6 0 13 -4 15 -8 3 -9 130 -82 141 -82 3 0 11 16 17 35
6 19 16 35 21 35 16 0 22 -29 9 -45 -6 -8 -9 -18 -6 -24 4 -5 -4 -11 -16 -13
-12 -2 -23 -9 -26 -17 -3 -9 1 -11 16 -7 14 5 24 1 30 -11 9 -14 13 -15 26 -4
9 7 16 19 16 26 0 17 35 8 52 -13 11 -13 11 -14 -1 -7 -10 5 -12 4 -7 -3 4 -7
19 -12 33 -12 25 0 68 -11 121 -32 20 -7 29 -3 54 21 l30 29 -21 21 c-12 12
-20 24 -19 29 2 4 -7 17 -19 29 -25 25 -43 30 -43 12 0 -5 -5 -7 -10 -4 -6 4
-8 11 -4 16 3 5 -25 23 -63 40 -37 16 -90 41 -118 55 -28 14 -51 20 -53 14 -2
-5 -8 -10 -14 -10 -6 0 -7 7 -4 16 3 9 -4 32 -16 52 -12 20 -17 33 -12 29 6
-4 7 14 2 51 -5 31 -10 78 -11 103 l-2 47 44 -39 c39 -35 59 -44 84 -40 5 1 6
-3 2 -9 -13 -20 -46 -9 -77 26 -41 46 -59 31 -25 -22 13 -22 35 -48 47 -59 13
-11 29 -35 37 -54 14 -32 15 -33 34 -15 10 9 22 14 26 11 3 -4 3 -7 -2 -7 -4
0 -2 -7 5 -15 16 -19 34 -20 27 -1 -4 10 0 13 14 11 16 -3 19 0 14 15 -8 25
15 37 28 14 19 -33 90 -101 83 -79 -5 17 -4 16 12 -4 13 -16 22 -20 26 -12 4
6 4 11 -1 11 -4 0 0 5 10 11 9 6 15 14 12 20 -4 5 4 22 16 37 12 15 19 19 16
9 -7 -20 -3 -21 23 -7 24 13 16 36 -16 44 -13 4 -23 11 -21 17 5 23 -84 54
-124 43 -11 -3 -15 -12 -11 -29 2 -15 0 -25 -7 -25 -6 0 -11 5 -11 11 0 6 -7
9 -15 5 -11 -4 -15 1 -15 18 0 18 4 23 18 19 10 -2 24 3 32 12 16 19 6 32 -14
16 -10 -9 -16 -9 -21 -1 -5 8 -11 8 -21 -1 -8 -6 -17 -9 -21 -6 -3 4 -12 2
-20 -5 -7 -6 -17 -7 -21 -3 -4 4 -1 10 6 12 10 4 10 8 1 19 -6 7 -9 20 -6 27
3 8 -1 14 -9 14 -7 0 -11 -4 -9 -8 3 -3 -4 -9 -15 -12 -18 -5 -36 11 -39 36
-1 4 -3 6 -5 5 -3 -2 -16 8 -30 21 -14 14 -26 20 -26 14 0 -6 14 -23 30 -37
28 -23 29 -26 12 -35 -22 -12 -42 3 -42 30 0 10 -6 21 -12 26 -22 13 -48 13
-48 0 0 -8 -4 -7 -10 3 -5 8 -10 10 -10 5 0 -6 5 -16 10 -21 6 -6 7 -19 3 -30
-6 -17 -8 -17 -14 6 -5 17 -7 5 -8 -37 -1 -48 3 -66 18 -80 14 -14 36 -63 27
-63 -1 0 -28 32 -60 70 -31 39 -64 70 -72 70 -8 0 -14 4 -14 8 0 4 -13 16 -30
25 -22 14 -30 15 -30 5 -1 -7 -7 1 -14 18 -16 37 -42 58 -32 26 4 -12 2 -23
-5 -28 -7 -4 -9 -3 -6 3 7 12 -38 65 -47 56 -3 -3 -13 0 -22 8 -16 13 -16 12
0 -18 9 -18 21 -33 26 -33 5 0 16 -13 25 -30 19 -37 4 -39 -24 -4 -25 31 -28
24 -5 -11 9 -13 13 -29 9 -35 -4 -6 -2 -16 3 -23 5 -7 13 -32 17 -57 4 -25 13
-61 21 -80 l14 -35 -22 29 c-12 16 -29 43 -38 60 -8 17 -23 33 -34 34 -11 3
-16 0 -12 -7 13 -21 -13 -11 -28 11 -14 19 -16 20 -16 5 0 -10 -4 -15 -10 -12
-6 3 -7 -1 -4 -9 3 -9 9 -14 13 -12 3 2 7 -7 7 -20 1 -15 -4 -24 -12 -24 -13
0 -19 13 -15 33 1 5 -8 11 -19 14 -15 4 -18 9 -10 18 8 10 2 22 -24 49 -20 19
-36 40 -36 46 0 13 43 6 48 -8 2 -7 8 -12 13 -12 6 0 7 6 4 13 -4 6 1 3 9 -7
16 -20 16 -20 16 0 0 25 -27 64 -44 64 -8 0 -17 7 -20 16 -5 14 -9 14 -22 3
-14 -11 -19 -9 -34 11 -11 14 -27 43 -37 65 -10 22 -26 49 -36 60 -10 11 -24
27 -31 35 -14 16 -41 72 -51 107 -3 11 -13 24 -22 27 -12 5 -13 3 -6 -6 6 -7
14 -24 18 -38 7 -24 7 -24 -11 -9 -37 31 -47 32 -28 3 12 -19 -7 -6 -53 36
-40 36 -73 68 -73 72 0 9 72 -23 82 -37 4 -5 6 0 6 12 -1 12 -7 19 -15 16 -7
-3 -13 0 -13 7 0 7 -7 10 -15 7 -18 -7 -137 109 -276 269 -70 81 -79 94 -69
94 26 0 162 -93 209 -143 14 -16 54 -51 89 -78 l62 -49 0 33 c0 26 -10 42 -44
76 -39 38 -44 48 -39 76 5 33 5 34 -40 40 -25 4 -57 8 -71 9 -16 0 -26 7 -26
17 0 8 -6 24 -14 34 -9 13 -11 27 -6 41 10 24 2 63 -14 80 -7 6 -22 7 -39 3z
m78 -207 c-3 -3 -18 7 -33 23 l-27 28 33 -23 c18 -12 31 -25 27 -28z m-95 -67
c14 -19 14 -19 -2 -6 -10 7 -18 18 -18 24 0 6 1 8 3 6 1 -2 9 -13 17 -24z m-2
-70 c-3 -3 -9 2 -12 12 -6 14 -5 15 5 6 7 -7 10 -15 7 -18z m171 -129 c27 -39
-13 -9 -58 45 l-46 54 46 -40 c25 -22 51 -48 58 -59z m-69 9 c0 -7 4 -15 8
-17 9 -3 25 -68 17 -68 -11 0 -75 63 -75 74 0 18 21 35 36 29 8 -3 14 -11 14
-18z m170 -127 c0 -12 -6 -9 -26 13 -19 22 -19 22 4 8 12 -8 22 -17 22 -21z
m165 -78 c10 -11 16 -20 13 -20 -3 0 -13 9 -23 20 -10 11 -16 20 -13 20 3 0
13 -9 23 -20z m-165 -56 c0 -8 -5 -12 -10 -9 -6 4 -8 11 -5 16 9 14 15 11 15
-7z m27 -60 c-9 -9 -28 6 -21 18 4 6 10 6 17 -1 6 -6 8 -13 4 -17z m201 -89
c-3 -3 -9 2 -12 12 -6 14 -5 15 5 6 7 -7 10 -15 7 -18z m-239 -59 c-7 -14 -16
-23 -20 -20 -10 6 -12 45 -3 69 6 14 8 14 20 -4 11 -15 12 -25 3 -45z m982
-13 c12 -15 12 -16 -4 -10 -10 4 -26 7 -35 7 -15 0 -15 2 -2 10 21 13 25 13
41 -7z m-351 -23 c0 -10 7 -21 16 -24 10 -4 14 -14 11 -25 -2 -10 4 -29 15
-42 l20 -24 -7 28 c-6 28 -6 28 20 11 14 -9 25 -12 26 -8 1 17 18 -31 18 -54
1 -19 -3 -22 -26 -16 -80 19 -132 61 -133 107 0 15 17 6 29 -15 11 -23 11 -23
6 2 -13 57 -15 91 -5 85 5 -3 10 -14 10 -25z m390 20 c0 -5 -4 -10 -10 -10 -5
0 -10 5 -10 10 0 6 5 10 10 10 6 0 10 -4 10 -10z m-340 -31 c0 -5 -4 -9 -10
-9 -5 0 -10 7 -10 16 0 8 5 12 10 9 6 -3 10 -10 10 -16z m47 -31 c-3 -8 -6 -5
-6 6 -1 11 2 17 5 13 3 -3 4 -12 1 -19z m487 -23 c-4 -8 -10 -15 -14 -15 -5 0
-11 -10 -13 -22 -4 -16 -5 -13 -4 7 2 28 12 44 29 45 4 0 5 -7 2 -15z m-152
-47 c-7 -7 -12 -8 -12 -2 0 14 12 26 19 19 2 -3 -1 -11 -7 -17z m-574 -13 c-3
-3 -9 2 -12 12 -6 14 -5 15 5 6 7 -7 10 -15 7 -18z m45 -25 c-6 -24 -26 -21
-31 3 -2 11 3 17 16 17 15 0 19 -5 15 -20z m387 -100 c0 -5 -4 -10 -10 -10 -5
0 -10 5 -10 10 0 6 5 10 10 10 6 0 10 -4 10 -10z m-339 -40 c5 0 9 7 9 16 0
14 3 14 15 4 24 -20 15 -56 -12 -52 -17 2 -23 -2 -23 -14 0 -26 -18 -4 -22 26
-3 28 15 58 20 34 2 -8 8 -14 13 -14z m409 -37 c0 -16 -27 -6 -34 14 -3 8 -3
20 0 25 8 12 34 -18 34 -39z m20 43 c0 -3 -4 -8 -10 -11 -5 -3 -10 -1 -10 4 0
6 5 11 10 11 6 0 10 -2 10 -4z m-90 -31 c0 -8 -2 -15 -4 -15 -2 0 -6 7 -10 15
-3 8 -1 15 4 15 6 0 10 -7 10 -15z m-269 -8 c-6 -8 -8 -17 -4 -20 3 -4 1 -7
-5 -7 -7 0 -12 9 -12 20 0 12 7 20 16 20 13 0 14 -3 5 -13z m557 -63 c-4 -3
-12 5 -18 18 -12 22 -12 22 6 6 10 -10 15 -20 12 -24z m-103 16 c3 -6 -1 -7
-9 -4 -18 7 -21 14 -7 14 6 0 13 -4 16 -10z m39 -32 c-9 -30 -12 -34 -24 -22
-14 14 -2 44 17 44 10 0 12 -6 7 -22z m75 -32 c-3 -3 -11 5 -18 17 -13 21 -12
21 5 5 10 -10 16 -20 13 -22z m-339 -71 c0 -5 -49 4 -63 12 -4 2 -5 9 -2 14 6
8 65 -16 65 -26z m217 -31 c-3 -3 -12 -4 -19 -1 -8 3 -5 6 6 6 11 1 17 -2 13
-5z"/>
<path d="M311 1963 c-1 -6 -4 -20 -7 -30 -5 -17 -5 -17 6 0 6 10 9 23 6 30 -3
9 -5 9 -5 0z"/>
<path d="M980 1941 c5 -11 15 -23 21 -27 6 -3 3 5 -6 20 -20 30 -30 35 -15 7z"/>
<path d="M1036 1588 c0 -24 5 -52 11 -63 20 -36 37 -144 25 -157 -7 -9 -5 -20
9 -37 10 -13 19 -19 19 -14 0 5 -3 13 -7 19 -5 5 2 0 13 -12 28 -27 44 -58 44
-84 0 -12 4 -19 9 -16 4 3 27 -12 51 -34 30 -28 41 -33 37 -19 -6 22 -3 23 24
8 19 -10 20 -9 9 10 -9 17 -15 19 -30 11 -15 -8 -19 -7 -17 9 1 12 6 17 17 13
8 -3 2 9 -13 25 l-28 31 26 0 c17 0 32 -9 42 -25 11 -17 19 -21 26 -14 8 8 2
20 -17 40 -20 21 -24 31 -15 36 7 5 10 4 6 -2 -4 -6 0 -16 8 -23 11 -10 18 -9
30 4 20 20 29 20 44 2 10 -11 9 -16 -3 -23 -14 -8 -13 -15 11 -61 15 -29 30
-52 35 -52 4 0 8 16 8 36 0 52 -60 147 -144 229 -80 78 -221 205 -227 205 -2
0 -4 -19 -3 -42z m187 -198 c20 -19 35 -26 41 -20 6 6 14 10 19 10 5 0 -1 -9
-14 -19 -24 -19 -24 -19 -45 0 -11 10 -25 19 -30 19 -5 0 -10 9 -10 20 0 26 1
26 39 -10z m-23 -62 c0 -19 -20 -5 -32 22 -7 17 -16 30 -21 30 -4 0 -3 -9 3
-21 14 -25 8 -35 -9 -15 -8 9 -10 24 -6 37 7 22 8 22 36 -12 16 -19 29 -37 29
-41z m15 32 c3 -5 1 -10 -4 -10 -6 0 -11 5 -11 10 0 6 2 10 4 10 3 0 8 -4 11
-10z m26 -57 c13 -16 12 -17 -3 -4 -10 7 -18 15 -18 17 0 8 8 3 21 -13z m139
-43 c0 -5 -2 -10 -4 -10 -3 0 -8 5 -11 10 -3 6 -1 10 4 10 6 0 11 -4 11 -10z"/>
<path d="M756 1608 c5 -7 19 -21 32 -32 13 -10 21 -24 18 -31 -8 -23 106 -191
123 -180 5 2 28 -10 52 -28 24 -17 39 -25 34 -17 -5 8 -19 32 -33 53 -22 36
-23 69 -1 37 8 -11 8 -8 3 10 l-7 25 24 -20 24 -20 -19 22 c-10 13 -22 20 -27
18 -4 -3 -15 2 -23 11 -10 10 -16 11 -16 3 0 -9 -4 -8 -15 1 -17 14 -21 55 -5
45 6 -4 7 -12 3 -18 -4 -7 1 -6 10 2 16 12 16 16 2 31 -15 17 -49 24 -39 8 3
-4 -2 -8 -11 -8 -8 0 -38 23 -65 50 -46 46 -82 67 -64 38z"/>
<path d="M1205 1594 c10 -17 26 -41 37 -55 l20 -24 -17 31 c-10 17 -26 41 -37
55 l-20 24 17 -31z"/>
<path d="M950 1525 c7 -8 17 -12 22 -9 6 4 5 10 -3 15 -22 14 -33 10 -19 -6z"/>
<path d="M1020 1534 c0 -6 7 -19 16 -30 14 -18 14 -18 3 6 -14 31 -19 36 -19
24z"/>
<path d="M1030 1396 c0 -2 8 -10 18 -17 15 -13 16 -12 3 4 -13 16 -21 21 -21
13z"/>
<path d="M1400 1293 c0 -5 10 -19 21 -33 l20 -25 -16 33 c-15 30 -25 41 -25
25z"/>
<path d="M1026 1249 c12 -13 29 -37 38 -54 25 -47 66 -93 66 -74 0 33 -13 79
-20 74 -15 -9 -41 7 -50 31 -5 12 -19 28 -32 35 l-23 12 21 -24z"/>
<path d="M1110 1260 c0 -18 30 -70 40 -70 6 0 10 5 10 10 0 6 -4 10 -9 10 -5
0 -14 14 -20 30 -10 30 -21 40 -21 20z"/>
<path d="M532 1235 c-2 -27 16 -44 28 -25 8 12 -8 50 -20 50 -3 0 -7 -11 -8
-25z"/>
<path d="M1075 1220 c3 -5 11 -10 16 -10 6 0 7 5 4 10 -3 6 -11 10 -16 10 -6
0 -7 -4 -4 -10z"/>
<path d="M1450 1216 c0 -2 7 -7 16 -10 8 -3 12 -2 9 4 -6 10 -25 14 -25 6z"/>
<path d="M1000 1141 c0 -5 5 -13 10 -16 6 -3 10 -2 10 4 0 5 -4 13 -10 16 -5
3 -10 2 -10 -4z"/>
<path d="M1110 1093 c0 -4 5 -15 10 -23 8 -13 10 -13 10 2 0 9 -4 20 -10 23
-5 3 -10 3 -10 -2z"/>
<path d="M1730 1051 c0 -6 5 -13 10 -16 6 -3 10 1 10 9 0 9 -4 16 -10 16 -5 0
-10 -4 -10 -9z"/>
<path d="M1780 856 c0 -2 7 -9 15 -16 13 -11 14 -10 9 4 -5 14 -24 23 -24 12z"/>
<path d="M1939 816 c9 -11 9 -15 -1 -18 -7 -3 2 -5 20 -6 33 -1 33 0 16 19
-20 23 -54 28 -35 5z"/>
<path d="M1656 571 c-3 -5 5 -11 19 -13 20 -4 23 -3 14 8 -13 16 -25 18 -33 5z"/>
<path d="M1990 556 c0 -6 9 -17 21 -24 16 -10 18 -16 9 -27 -9 -10 -7 -15 9
-20 10 -3 25 -13 33 -22 11 -14 11 -16 -4 -10 -9 3 -22 -1 -29 -10 -11 -13
-10 -15 6 -13 11 1 30 2 42 1 20 -1 21 -4 13 -26 -10 -25 2 -36 16 -14 3 6 15
8 26 6 14 -4 31 5 57 30 20 20 29 34 21 31 -12 -5 -16 1 -15 25 0 26 -7 35
-40 54 -41 23 -81 31 -70 13 9 -14 -8 -13 -23 2 -15 15 -72 18 -72 4z"/>
<path d="M1285 490 c3 -5 11 -10 16 -10 6 0 7 5 4 10 -3 6 -11 10 -16 10 -6 0
-7 -4 -4 -10z"/>
<path d="M1866 473 c-4 -9 -1 -20 6 -25 10 -6 10 -8 1 -8 -23 0 -28 -2 -40
-12 -7 -6 -10 -14 -7 -20 3 -5 0 -15 -6 -23 -10 -13 -8 -15 14 -15 15 0 41 7
57 16 29 14 30 17 15 33 -23 25 -20 32 12 25 l27 -7 -30 27 c-35 31 -41 32
-49 9z"/>
<path d="M1935 410 c-3 -5 -3 -10 2 -10 4 0 1 -5 -7 -10 -13 -8 -12 -10 3 -10
10 0 17 8 17 20 0 22 -5 26 -15 10z"/>
<path d="M1507 373 c-39 -6 -23 -23 21 -22 20 1 28 4 18 6 -15 4 -16 7 -5 14
8 5 10 8 4 7 -5 0 -22 -3 -38 -5z"/>
<path d="M1937 364 c-15 -8 -52 -15 -82 -16 -65 -2 -70 -21 -7 -26 30 -2 51 3
71 17 16 12 39 21 51 21 11 0 18 5 15 10 -8 13 -14 12 -48 -6z"/>
<path d="M2000 370 c0 -5 5 -10 10 -10 6 0 10 5 10 10 0 6 -4 10 -10 10 -5 0
-10 -4 -10 -10z"/>
<path d="M578 358 c9 -9 15 -9 24 0 9 9 7 12 -12 12 -19 0 -21 -3 -12 -12z"/>
<path d="M1603 343 c9 -2 23 -2 30 0 6 3 -1 5 -18 5 -16 0 -22 -2 -12 -5z"/>
<path d="M1709 339 c-10 -6 -7 -9 14 -9 29 0 35 5 14 13 -8 3 -20 1 -28 -4z"/>
<path d="M1760 340 c0 -5 5 -10 11 -10 5 0 7 5 4 10 -3 6 -8 10 -11 10 -2 0
-4 -4 -4 -10z"/>
</g>
</svg>
